# xmcd
#
# Track frame offsets: 
#        150
#        10787
#        23434
#        36509
#        44807
#        53622
#        62010
#        75611
#        90164
#        101227
#        117139
#
# Disc length: 1855 seconds
#
# Revision: 0
# Processed by: cddbd v1.5.2PL0 Copyright (c) Steve Scherf et al.
# Submitted via: ExactAudioCopy v1.3
#
DISCID=7f073d0b
DTITLE=Flat Tires - Freedom
DYEAR=2011
DGENRE=Country
TTITLE0=GD Woman
TTITLE1=Flu
TTITLE2=Freeborn
TTITLE3=Crybaby
TTITLE4=Two of Three Things
TTITLE5=Hypocrite (Revised)
TTITLE6=Don't Shake Me Lucifer
TTITLE7=Trailer Daze
TTITLE8=On The Loose
TTITLE9=Carolina Shitstomp
TTITLE10=Rock and Roll Weekend
EXTD=
EXTT0=
EXTT1=
EXTT2=
EXTT3=
EXTT4=
EXTT5=
EXTT6=
EXTT7=
EXTT8=
EXTT9=
EXTT10=
PLAYORDER=
